<?xml version="1.0" encoding="utf-8"?>
<!-- Generator: Adobe Illustrator 26.3.1, SVG Export Plug-In . SVG Version: 6.00 Build 0)  -->
<svg version="1.1"
	 id="svg2" xmlns:dc="http://purl.org/dc/elements/1.1/" xmlns:rdf="http://www.w3.org/1999/02/22-rdf-syntax-ns#" xmlns:cc="http://creativecommons.org/ns#"
	 xmlns="http://www.w3.org/2000/svg" xmlns:xlink="http://www.w3.org/1999/xlink" x="0px" y="0px" viewBox="0 0 256 256"
	 style="enable-background:new 0 0 256 256;" xml:space="preserve">
<style type="text/css">
	.st0{fill:#F3F3F3;enable-background:new    ;}
</style>
<path id="mainsymbolpath" class="st0" d="M160.5,128c0,18-14.6,32.5-32.5,32.5c-18,0-32.5-14.6-32.5-32.5S110,95.5,128,95.5
	S160.5,110,160.5,128L160.5,128z M128,17.8C71.7,17.8,25.2,60,18.6,114.5h59.2C83.8,92.3,104,76,128,76s44.3,16.3,50.2,38.4h59.2
	C230.8,60,184.3,17.8,128,17.8z M18.6,141.5c6.7,54.5,53.1,96.7,109.4,96.7s102.8-42.2,109.4-96.7h-59.2
	c-6,22.1-26.2,38.4-50.2,38.4s-44.2-16.3-50.2-38.4C77.8,141.5,18.6,141.5,18.6,141.5z"/>
</svg>
